<?xml version="1.0" encoding="utf-8"?>
<!-- Generator: Adobe Illustrator 26.1.0, SVG Export Plug-In . SVG Version: 6.00 Build 0)  -->
<svg version="1.1" id="Layer_1" xmlns="http://www.w3.org/2000/svg" xmlns:xlink="http://www.w3.org/1999/xlink" x="0px" y="0px"
	 viewBox="0 0 2611.4 2000" style="enable-background:new 0 0 2611.4 2000;" xml:space="preserve">
<style type="text/css">
	.st0{fill:#DEF2FF;}
	.st1{fill:#4188E4;}
	.st2{fill:#CAF0FF;}
	.st3{fill:#142666;}
	.st4{fill:#AFDBFE;}
	.st5{fill:#FFFFFF;}
	.st6{fill:#70C0FD;}
	.st7{fill:#A2CFF6;}
	.st8{fill:#B0C1EC;}
	.st9{fill:#FFC0BB;}
	.st10{fill:#F9537F;}
	.st11{fill:#3D3A55;}
	.st12{fill:#09083C;}
	.st13{opacity:0.3;fill:#E87B50;enable-background:new    ;}
	.st14{fill:#FF5B7E;}
	.st15{fill:#E03268;}
	.st16{fill:#2B1C35;}
	.st17{opacity:0.6;fill:#FC8D84;enable-background:new    ;}
	.st18{fill:#FEE4CB;}
	.st19{fill:#F99893;}
	.st20{fill:#333333;}
	.st21{fill:#07085B;}
	.st22{fill:#FEB546;}
	.st23{fill:#452B52;}
	.st24{fill:#DAEEF7;}
	.st25{opacity:0.5;fill:#E03268;enable-background:new    ;}
	.st26{fill:#C1215B;}
	.st27{fill:#FF85A5;}
	.st28{fill:#3A2645;}
	.st29{fill:#F7AEAA;}
	.st30{fill:#FF6088;}
	.st31{fill:#030321;}
	.st32{opacity:0.3;fill:#F99893;enable-background:new    ;}
	.st33{fill:#02CCC0;}
	.st34{fill:#050849;}
	.st35{fill:#F4A640;}
	.st36{fill:#ED9935;}
</style>
<g>
	<path class="st0" d="M1784.1,77.9C1481-27.4,1385.8,276,1102.7,368s-377.2-85.1-649.3,21.6C209.7,485.1,181.9,757,125.8,1057.3
		c-56.1,300.3-94,211.2-87.2,493.7s464.8,326.8,464.8,326.8l378.2,90.8c140.2,33.7,285.8,18.2,414.5-44.1
		c380.7-184.4,1128.1-586.9,1093.1-766.1c-85.6-439.2-204.7-403.2-251.7-590.6C2090.5,380.3,2087.2,183.2,1784.1,77.9L1784.1,77.9z"
		/>
	<path class="st1" d="M2446.3,360.2c-243-250.1-483.5-2-803.3-50.7c-319.8-48.8-324.8-266.7-641.1-295.8
		C718.7-12.4,559,238,358.1,502.3s-194.3,159.3-325.5,437s291.9,544.1,291.9,544.1l323,272.7c119.7,101.1,268.7,157.1,424.1,159.4
		c459.7,6.7,1381.8-19.7,1435.3-210.7c131.1-468.2-2.1-491.5,43.7-696.4C2596.3,803.3,2689.3,610.3,2446.3,360.2L2446.3,360.2z"/>
	<path class="st2" d="M2112.3,203.3c-280-162-442.5,103.4-746.2,131s-358.7-158.4-654.6-114.7c-265,39.1-353,288.9-475.6,559.6
		s-140.8,179-196.5,446s392.8,403.9,392.8,403.9l358.4,164c132.9,60.8,282,76.5,424.6,44.7c421.8-94.1,1258.9-317.2,1263.6-492.9
		c11.6-430.6-115.6-421.6-121.2-607.6C2351.9,551.3,2392.3,365.3,2112.3,203.3L2112.3,203.3z"/>
	<g>
		<path class="st1" d="M811.6,1305.1H426.1c-6.7,0-12.2-5.4-12.2-12.2V461.2c0-6.7,5.4-12.2,12.2-12.2h385.5
			c6.7,0,12.2,5.4,12.2,12.2v831.7C823.8,1299.6,818.3,1305.1,811.6,1305.1z"/>
		<rect x="438.5" y="518.8" class="st3" width="360.8" height="193.2"/>
		<rect x="438.5" y="729.6" class="st3" width="360.8" height="193.2"/>
		<rect x="438.5" y="940.3" class="st3" width="360.8" height="193.2"/>
	</g>
	<g>
		<path class="st1" d="M1620.5,1305.1H912.4c-6.7,0-12.2-5.4-12.2-12.2V461.2c0-6.7,5.4-12.2,12.2-12.2h708.1
			c6.7,0,12.2,5.4,12.2,12.2v831.7C1632.6,1299.6,1627.2,1305.1,1620.5,1305.1z"/>
		<rect x="944.1" y="518.8" class="st3" width="644.7" height="193.2"/>
		<rect x="944.1" y="729.6" class="st3" width="644.7" height="193.2"/>
		<rect x="944.1" y="940.3" class="st3" width="644.7" height="193.2"/>
	</g>
	<g>
		<rect x="1235.5" y="1113.6" class="st4" width="108.3" height="19.9"/>
		<rect x="1250.5" y="1096" class="st5" width="96.9" height="17.7"/>
		<rect x="1235.5" y="1078.3" class="st6" width="96.9" height="17.7"/>
		<rect x="1417.1" y="1012.5" class="st4" width="22" height="121"/>
		<rect x="1444.3" y="1033" class="st6" width="17.4" height="100.5"/>
		<rect x="1366.1" y="1012.5" class="st4" width="22" height="121"/>
		<rect x="1393.4" y="1033" class="st6" width="17.4" height="100.5"/>
		<rect x="1005.8" y="1036.9" class="st4" width="38.5" height="96.6"/>
		<rect x="988.4" y="1046.4" class="st5" width="10.8" height="87.2"/>
		<rect x="967.7" y="1032.4" class="st6" width="17.2" height="101.1"/>
		<rect x="1199.6" y="1032.4" class="st6" width="17.2" height="101.1"/>
		<rect x="1075.7" y="1046.4" class="st5" width="35" height="87.2"/>
		<rect x="1114.3" y="1012.5" class="st4" width="22" height="121"/>
		<rect x="1141.6" y="1033" class="st6" width="17.4" height="100.5"/>
		<rect x="1048.8" y="1025.9" class="st6" width="20.3" height="107.6"/>
		<rect x="1162.5" y="1042.9" class="st5" width="31.9" height="90.6"/>
	</g>
	<g>
		<rect x="478.8" y="1046.3" class="st5" width="10.8" height="87.2"/>
		<rect x="458.1" y="1032.4" class="st7" width="17.2" height="101.1"/>
		<rect x="749.6" y="1036.8" class="st4" width="38.5" height="96.6"/>
		<rect x="732.2" y="1046.3" class="st5" width="10.8" height="87.2"/>
		<rect x="711.5" y="1032.4" class="st6" width="17.2" height="101.1"/>
		<rect x="622.5" y="1012.5" class="st4" width="22" height="121"/>
		<rect x="495.5" y="1113.5" class="st8" width="108.3" height="19.9"/>
		<rect x="510.5" y="1095.9" class="st5" width="96.9" height="17.7"/>
		<rect x="495.6" y="1078.2" class="st7" width="96.9" height="17.7"/>
		<rect x="649.8" y="1033" class="st6" width="17.4" height="100.5"/>
		<rect x="674.3" y="1042.8" class="st5" width="31.9" height="90.6"/>
	</g>
	<rect x="975.7" y="624.8" class="st5" width="10.8" height="87.2"/>
	<rect x="955" y="610.9" class="st6" width="17.2" height="101.1"/>
	<rect x="1246.5" y="615.3" class="st4" width="38.5" height="96.6"/>
	<rect x="1229.1" y="624.8" class="st5" width="10.8" height="87.2"/>
	<rect x="1208.4" y="610.9" class="st6" width="17.2" height="101.1"/>
	<rect x="1119.4" y="591" class="st4" width="22" height="121"/>
	<rect x="992.4" y="692.1" class="st4" width="108.3" height="19.9"/>
	<rect x="1007.3" y="674.5" class="st5" width="96.9" height="17.7"/>
	<rect x="992.5" y="656.8" class="st6" width="96.9" height="17.7"/>
	<rect x="1146.7" y="611.5" class="st6" width="17.4" height="100.5"/>
	<rect x="1171.3" y="621.3" class="st5" width="31.9" height="90.6"/>
	<rect x="1757" y="613.9" class="st5" width="10.8" height="87.2"/>
	<rect x="1736.3" y="599.9" class="st6" width="17.2" height="101.1"/>
	<rect x="1989.6" y="599.9" class="st6" width="17.2" height="101.1"/>
	<rect x="1900.7" y="580" class="st4" width="22" height="121"/>
	<rect x="1773.6" y="681.1" class="st4" width="108.3" height="19.9"/>
	<rect x="1788.7" y="663.4" class="st5" width="96.9" height="17.7"/>
	<rect x="1773.7" y="645.8" class="st7" width="96.9" height="17.7"/>
	<rect x="1927.9" y="600.5" class="st6" width="17.4" height="100.5"/>
	<rect x="1952.5" y="610.4" class="st5" width="31.9" height="90.6"/>
	<rect x="1492.4" y="591" class="st4" width="22" height="121"/>
	<rect x="1519.6" y="611.5" class="st6" width="17.4" height="100.5"/>
	<rect x="1544.2" y="621.3" class="st5" width="31.9" height="90.6"/>
	<rect x="496.2" y="615.3" class="st4" width="38.5" height="96.6"/>
	<rect x="478.8" y="624.8" class="st5" width="10.8" height="87.2"/>
	<rect x="458.1" y="610.9" class="st6" width="17.2" height="101.1"/>
	<rect x="731.8" y="615.3" class="st4" width="38.5" height="96.6"/>
	<rect x="714.4" y="624.8" class="st5" width="10.8" height="87.2"/>
	<rect x="693.7" y="610.9" class="st6" width="17.2" height="101.1"/>
	<rect x="566" y="624.8" class="st5" width="35" height="87.2"/>
	<rect x="604.7" y="591" class="st4" width="22" height="121"/>
	<rect x="632" y="611.5" class="st6" width="17.4" height="100.5"/>
	<rect x="539.1" y="604.3" class="st6" width="20.3" height="107.6"/>
	<rect x="1332.9" y="615.3" class="st4" width="38.5" height="96.6"/>
	<rect x="1315.5" y="624.8" class="st5" width="10.8" height="87.2"/>
	<rect x="1294.8" y="610.9" class="st6" width="17.2" height="101.1"/>
	<rect x="1402.7" y="624.8" class="st5" width="35" height="87.2"/>
	<rect x="1441.4" y="591" class="st4" width="22" height="121"/>
	<rect x="1468.7" y="611.5" class="st6" width="17.4" height="100.5"/>
	<rect x="1375.8" y="604.3" class="st6" width="20.3" height="107.6"/>
	<rect x="1805.9" y="406.9" class="st4" width="22" height="121"/>
	<rect x="1833.2" y="427.4" class="st6" width="17.4" height="100.5"/>
	<rect x="1857.7" y="437.3" class="st5" width="31.9" height="90.6"/>
	<rect x="1716.3" y="440.7" class="st5" width="35" height="87.2"/>
	<rect x="1754.9" y="406.9" class="st4" width="22" height="121"/>
	<rect x="1782.2" y="427.4" class="st6" width="17.4" height="100.5"/>
	<rect x="1689.4" y="420.3" class="st6" width="20.3" height="107.6"/>
	<rect x="1408.9" y="826.1" class="st4" width="38.5" height="96.6"/>
	<rect x="1391.5" y="835.6" class="st5" width="10.8" height="87.2"/>
	<rect x="1370.8" y="821.7" class="st6" width="17.2" height="101.1"/>
	<rect x="1495.3" y="826.1" class="st4" width="38.5" height="96.6"/>
	<rect x="1477.9" y="835.6" class="st5" width="10.8" height="87.2"/>
	<rect x="1457.2" y="821.7" class="st6" width="17.2" height="101.1"/>
	<rect x="1538.2" y="815.1" class="st6" width="20.3" height="107.6"/>
	<rect x="656.5" y="621.3" class="st5" width="31.9" height="90.6"/>
	<rect x="1005.8" y="826.1" class="st4" width="38.5" height="96.6"/>
	<rect x="988.4" y="835.6" class="st5" width="10.8" height="87.2"/>
	<rect x="967.7" y="821.7" class="st6" width="17.2" height="101.1"/>
	<rect x="1241.4" y="826.1" class="st4" width="38.5" height="96.6"/>
	<rect x="1224" y="835.6" class="st5" width="10.8" height="87.2"/>
	<rect x="1203.3" y="821.7" class="st6" width="17.2" height="101.1"/>
	<rect x="1075.7" y="835.6" class="st5" width="35" height="87.2"/>
	<rect x="1114.3" y="801.8" class="st4" width="22" height="121"/>
	<rect x="1141.6" y="822.3" class="st6" width="17.4" height="100.5"/>
	<rect x="1048.8" y="815.1" class="st6" width="20.3" height="107.6"/>
	<rect x="1166.2" y="832.1" class="st5" width="31.9" height="90.6"/>
	<rect x="496.2" y="817.3" class="st5" width="38.5" height="105.5"/>
	<rect x="478.8" y="835.6" class="st6" width="10.8" height="87.2"/>
	<rect x="458.1" y="821.7" class="st4" width="17.2" height="101.1"/>
	<rect x="714.4" y="835.6" class="st6" width="10.8" height="87.2"/>
	<rect x="693.7" y="810.8" class="st5" width="17.2" height="112"/>
	<rect x="566" y="810.8" class="st6" width="35" height="112"/>
	<rect x="604.7" y="826.1" class="st5" width="22" height="96.6"/>
	<rect x="632" y="795.6" class="st4" width="17.4" height="127.2"/>
	<rect x="539.1" y="828.7" class="st4" width="20.3" height="94.1"/>
	<rect x="656.5" y="815.1" class="st6" width="31.9" height="107.6"/>
	
		<rect x="737.4" y="813.2" transform="matrix(0.9418 -0.3361 0.3361 0.9418 -247.5879 303.6573)" class="st5" width="31.9" height="107.7"/>
	
		<rect x="1295.5" y="813.2" transform="matrix(0.9418 -0.3361 0.3361 0.9418 -215.1245 491.2363)" class="st5" width="31.9" height="107.7"/>
	
		<rect x="1329.7" y="815.5" transform="matrix(0.9418 -0.3361 0.3361 0.9418 -214.371 500.2039)" class="st6" width="16" height="107.7"/>
	
		<rect x="1903.2" y="420.3" transform="matrix(0.9418 -0.3361 0.3361 0.9418 -48.1906 669.9702)" class="st6" width="16" height="107.7"/>
	<g>
		<polygon class="st9" points="1800.6,1346.6 1796.6,1378.9 1774.9,1380.6 1775.2,1350.6 		"/>
		<polygon class="st10" points="1418.1,1039.5 1628.1,1039.5 1605.2,1198.1 1431.9,1169.9 		"/>
		<g>
			<path class="st11" d="M1741.9,1404.3l59.3,0.4c1.3,0,2.3-1,2.3-2.3v-1.7c0-1.3-1.1-2.3-2.4-2.3l-59.3-0.4c-1.3,0-2.3,1-2.3,2.3
				v1.7C1739.5,1403.2,1740.6,1404.3,1741.9,1404.3z"/>
			<path class="st12" d="M1800.4,1379.3l2.3,17.5c0.3,2.2-0.9,4.1-2.6,4.1l-56.4-0.4c-1.5,0-2.9-0.9-3.7-2.6s-1-4.3,1.5-7.8
				c5-6.9,21.6-8.5,29.6-14.4l26.3,0.2C1798.8,1375.9,1800.1,1377.3,1800.4,1379.3z"/>
			<g>
				<path class="st5" d="M1775.2,1385.9L1775.2,1385.9c0.4-0.2,0.5-0.9,0.3-1.4c-1.1-2.4-4.6-8.3-11.7-7.1c-0.4,0.1-0.7,0.6-0.6,1.1
					l0,0c0.1,0.5,0.4,0.9,0.8,0.8c6.3-1,9.3,4.2,10.2,6.2C1774.5,1385.9,1774.9,1386.1,1775.2,1385.9z"/>
			</g>
			<g>
				<path class="st5" d="M1769.4,1388.1L1769.4,1388.1c0.4-0.2,0.5-0.9,0.3-1.4c-1.1-2.4-4.6-8.3-11.7-7.1c-0.4,0.1-0.7,0.6-0.6,1.1
					l0,0c0.1,0.5,0.4,0.9,0.8,0.8c6.3-1,9.3,4.2,10.2,6.2C1768.6,1388.1,1769,1388.3,1769.4,1388.1z"/>
			</g>
			<g>
				<path class="st5" d="M1763.9,1390.1L1763.9,1390.1c0.4-0.2,0.5-0.9,0.3-1.4c-1.1-2.4-4.6-8.3-11.7-7.1c-0.4,0.1-0.7,0.6-0.6,1.1
					l0,0c0.1,0.5,0.4,0.9,0.8,0.8c6.3-1,9.3,4.2,10.2,6.2C1763.2,1390.2,1763.6,1390.3,1763.9,1390.1z"/>
			</g>
			<path class="st13" d="M1785,1400.8c4.3-14.1,12-15.6,16.1-15.2l1.5,11.3c0.3,2.2-0.9,4.1-2.6,4.1L1785,1400.8z"/>
		</g>
		<polygon class="st9" points="1897.2,1344.6 1899.1,1378.5 1877,1378.6 1874.9,1347.3 		"/>
		<g>
			<path class="st11" d="M1845.3,1404.8l59.3,0.4c1.3,0,2.3-1,2.3-2.3v-1.7c0-1.3-1.1-2.3-2.4-2.3l-59.3-0.4c-1.3,0-2.3,1-2.3,2.3
				v1.7C1842.9,1403.8,1844,1404.8,1845.3,1404.8z"/>
			<path class="st12" d="M1903.7,1379.8l2.3,17.5c0.3,2.2-0.9,4.1-2.6,4.1l-56.4-0.4c-1.5,0-2.9-0.9-3.7-2.6s-1-4.3,1.5-7.8
				c5-6.9,21.6-8.5,29.6-14.4l26.3,0.2C1902.2,1376.5,1903.5,1377.9,1903.7,1379.8z"/>
			<g>
				<path class="st5" d="M1878.6,1386.5L1878.6,1386.5c0.4-0.2,0.5-0.9,0.3-1.4c-1.1-2.4-4.6-8.3-11.7-7.1c-0.4,0.1-0.7,0.6-0.6,1.1
					l0,0c0.1,0.5,0.4,0.9,0.8,0.8c6.3-1,9.3,4.2,10.2,6.2C1877.8,1386.5,1878.2,1386.7,1878.6,1386.5z"/>
			</g>
			<g>
				<path class="st5" d="M1872.7,1388.7L1872.7,1388.7c0.4-0.2,0.5-0.9,0.3-1.4c-1.1-2.4-4.6-8.3-11.7-7.1c-0.4,0.1-0.7,0.6-0.6,1.1
					l0,0c0.1,0.5,0.4,0.9,0.8,0.8c6.3-1,9.3,4.2,10.2,6.2C1872,1388.7,1872.4,1388.9,1872.7,1388.7z"/>
			</g>
			<g>
				<path class="st5" d="M1867.3,1390.7L1867.3,1390.7c0.4-0.2,0.5-0.9,0.3-1.4c-1.1-2.4-4.6-8.3-11.7-7.1c-0.4,0.1-0.7,0.6-0.6,1.1
					l0,0c0.1,0.5,0.4,0.9,0.8,0.8c6.3-1,9.3,4.2,10.2,6.2C1866.6,1390.8,1867,1390.9,1867.3,1390.7z"/>
			</g>
			<path class="st13" d="M1888.4,1401.3c4.3-14.1,12-15.6,16.1-15.3l1.5,11.3c0.3,2.2-0.9,4.1-2.6,4.1L1888.4,1401.3z"/>
		</g>
		<path class="st11" d="M2175.9,1295.7h-718.2c-1.3,0-2.4-1.1-2.4-2.4v-7.4c0-1.3,1.1-2.4,2.4-2.4h718.2c1.3,0,2.4,1.1,2.4,2.4v7.4
			C2178.3,1294.6,2177.2,1295.7,2175.9,1295.7z"/>
		<path class="st14" d="M2221.9,932.9c-2.7,0.2-467.6,0.1-620.4,0c-26.5,0-48,21.5-48,48v195.8h574.8l89.2-89.1L2221.9,932.9z"/>
		<path class="st15" d="M2207.7,1116.9h28.4c5.1,0,9.3-4.2,9.3-9.3V942.3c0-5.1-4.2-9.3-9.3-9.3h-28.4c-5.1,0-9.3,4.2-9.3,9.3v165.3
			C2198.4,1112.7,2202.6,1116.9,2207.7,1116.9z"/>
		<rect x="1431.8" y="1147.5" class="st15" width="590.6" height="117.4"/>
		<path class="st16" d="M1891.7,1103.4c0,0-108.9,0.4-125.7,22.2c-16.8,21.8-29.6,169.3,0,233.8c0,0,38.3,1.3,47.1-4
			c0,0-2.7-108.8-1.3-137.7c1.3-28.9,21.5-32.9,24.2-35.6C1838.6,1179.3,1891.7,1103.4,1891.7,1103.4z"/>
		<polygon class="st9" points="2058.5,877.3 2062.6,910.8 2029.4,909.7 2030.4,871.3 		"/>
		<path class="st17" d="M2029.9,889l0.4-17.6l28.6,9.1l0.8,6.6C2053.4,889.4,2041.3,892.3,2029.9,889z"/>
		<polygon class="st18" points="1990.3,824.2 1994.6,847.1 1998.7,848.3 1997.7,819.3 		"/>
		<path class="st19" d="M2000.6,842.9c2.4,4.8,1.2,10.2-2.6,12.1c-3.8,1.9-8.9-0.4-11.3-5.2c-2.4-4.8-1.2-10.2,2.6-12.1
			C1993.2,835.8,1998.2,838.1,2000.6,842.9z"/>
		<path class="st9" d="M2004.2,871.7c-1.4-2-2.6-4.2-3.6-6.5c-2.8-6.2-4.5-12.8-5.5-18.7c-0.2-1.3-0.5-2.5-0.8-3.7
			c-1.3-5-1.6-10.3-0.9-15.9c2.5-18,16.8-32.4,34.8-35.1c24.2-3.6,45.8,14.1,47.5,37.8c2.5-1.6,5.4-2.2,8-1.2
			c5.1,1.8,7.3,8.4,5,14.7s-8.2,10-13.3,8.1c-0.7-0.3-1.3-0.6-1.9-1c-0.6,20.3-16,37.1-35.9,38.3c-9.7,0.6-18.8-2.7-25.9-8.6
			c-0.5-0.3-1-0.7-1.5-1.2C2007.9,876.7,2005.9,874.3,2004.2,871.7z"/>
		<path class="st20" d="M2038.9,835.9c0.1,2,1.8,3.5,3.8,3.4s3.5-1.8,3.4-3.8s-1.8-3.5-3.8-3.4
			C2040.3,832.2,2038.7,833.9,2038.9,835.9z"/>
		<path class="st20" d="M2008,839.7c0.1,2,1.8,3.5,3.8,3.4s3.5-1.8,3.4-3.8s-1.8-3.5-3.8-3.4C2009.4,836,2007.9,837.7,2008,839.7z"
			/>
		<path class="st21" d="M2034.1,829c1.7-0.8,3.4-1.5,5.1-2c1.7-0.5,3.3-0.8,5-0.8s3.3,0.2,5,0.7l0.6,0.2c0.2,0.1,0.4,0.2,0.6,0.2
			l1.3,0.4c0.9,0.3,1.7,0.7,2.6,1c-0.6-0.8-1.2-1.5-1.9-2.1c-0.8-0.6-1.5-1.2-2.4-1.6c-1.7-1-3.8-1.4-5.8-1.4s-4,0.6-5.8,1.5
			C2036.6,826.1,2035.1,827.4,2034.1,829z"/>
		<path class="st21" d="M2019.6,830.6c-1.3-1.4-3.1-2.3-5-2.9c-1.9-0.5-4-0.6-5.9-0.2c-2,0.4-3.9,1.3-5.4,2.6
			c-0.8,0.6-1.4,1.4-2,2.1c-0.6,0.8-1,1.6-1.4,2.5c0.9-0.5,1.5-1.1,2.3-1.6l1.1-0.7c0.2-0.1,0.4-0.2,0.6-0.4l0.6-0.3
			c1.5-0.9,3.1-1.4,4.7-1.7c1.6-0.3,3.3-0.4,5-0.3C2016,829.9,2017.7,830.2,2019.6,830.6z"/>
		<path class="st21" d="M1984.5,797.1c0,0-12.4,1,0.1-10.1s46.8-25.1,69.8-14.4c0,0,4-9.7,10.6-7.8s-3.8,9-3.8,9s8.3-0.7,11,3.2
			c2,2.9-3,3.3-5.8,3.3c4.7,0.6,20.5,8.9,13.3,45.6c-3.3-0.5-29.2-21.8-29.2-21.8s-34,22.7-30,10.6c0,0-40.5,23.1-35.5,0.4
			C1985,815.1,1968.2,817.2,1984.5,797.1z"/>
		<path class="st19" d="M2025.2,829.6c0.9,2.4,1.5,5,1.7,7.6c0.1,1.3,0.1,2.6,0,4c-0.2,1.4-0.4,2.7-1.3,4.1l-0.4,0.5l-0.3,0.4
			c-0.1,0.2-0.3,0.4-0.4,0.6c-0.3,0.4-0.4,0.8-0.5,1.3c-0.2,0.9,0.3,1.8,0.9,2.7c1.4,1.7,3.9,2.5,6.4,3c-2.5,0.6-5.5,0.3-7.8-1.6
			c-1.1-0.9-2-2.5-1.9-4.2c0-0.4,0.1-0.8,0.2-1.2c0.1-0.4,0.3-0.8,0.5-1.1c0.2-0.4,0.5-0.6,0.7-1c0.1-0.2,0.2-0.2,0.2-0.3l0.2-0.3
			c0.5-0.8,0.8-2,1-3.1c0.2-1.2,0.3-2.4,0.4-3.6C2025.1,834.8,2025.1,832.2,2025.2,829.6z"/>
		<path class="st21" d="M2050.4,804.1c0,0,14.4,22.7,14.7,36.1c0,0,6.1-12,16.1-12.3c0,0,3.3-22.6-2.9-36.7l-22.6,4.8L2050.4,804.1z
			"/>
		<path class="st22" d="M2021.4,896.9c0,0,10.1,15.8,43.7,0c0,0,60.8-16.8,65.5,55.4l2.4,67.2c0,0-31.4,0.1-47.6,0.7l-0.5,14.1
			l-91.8,74.6c0,0-54.5-4.7-65.5-10.1c0,0,19.5-38.6,22.5-47.4c3-8.7,5.2-93,8.4-101.8C1961.8,940.9,1971.1,898.1,2021.4,896.9z"/>
		<path class="st23" d="M1976.2,947.4c-1.2,2-2.2,4.1-3,6.3c-0.5,1.1-0.8,2.2-1.2,3.3l-1,3.3c-1.3,4.5-2.3,9.1-3,13.7
			c-0.8,4.6-1.2,9.3-1.6,13.9c-0.2,2.3-0.3,4.7-0.4,7c-0.1,2.3-0.1,4.7-0.2,7c-0.1-2.3-0.2-4.7-0.3-7c0-2.3,0-4.7,0.1-7.1
			c0.2-4.7,0.6-9.4,1.4-14.1c0.8-4.6,1.8-9.3,3.3-13.7C1971.6,955.6,1973.4,951.2,1976.2,947.4z"/>
		<g>
			<path class="st24" d="M1924.2,997.4c-0.8,0-34.1-20.1-34.1-20.1l-6.2,1.3l2.2,1.6l-3.7-0.9l-6.1,0.9c0,0,20,23.6,20.3,24.3
				c0.3,0.7,9.1,4,9.7,4.4C1907.1,1009.2,1924.2,997.4,1924.2,997.4z"/>
			<path class="st24" d="M1977.5,981.3l-3-1.9l-1.4,0.9v-1.8l-1.9-1.3l-48.4,19.1c0,0,15.5,9.8,16,9.4s28.1-5.4,28.6-6.2
				C1967.9,999,1977.5,981.3,1977.5,981.3z"/>
			<path class="st15" d="M1976.7,980.4l-54.9,17.8l-44.2-19.2c-2.7-1.2-5.6,1-5.3,3.9l8.4,75.3c0.1,1.3,0.9,2.4,2,2.9l42.5,22.4
				l38.5-14.2l1-1.5l5-0.8l16.1-6c1.4-0.5,2.3-2,2.2-3.5l-6.3-73.9C1981.5,981.3,1979,979.7,1976.7,980.4z"/>
			<path class="st25" d="M1976.7,980.4c2.3-0.8,4.8,0.9,5,3.3l6.3,73.8c0.1,1.6-0.8,3.1-2.3,3.6l-16,5.9l-5,0.8l-1,1.5l-35.1,12.6
				l-6.8-83.7L1976.7,980.4z"/>
			<polygon class="st26" points="1913.7,1007.2 1879.5,992.2 1880.5,1007.8 1914.1,1023.3 			"/>
		</g>
		<path class="st9" d="M1995,1056.2c0.1-0.5,0.5-1.2-0.2-1.7c-0.2-0.1-0.4-0.2-0.6-0.4c-2.7-1.8-4.6-4-5.9-7c-0.3-0.7-0.7-1.7-1-2.1
			c-0.3-0.3-0.3,0.1-0.3,0.1l0.6,7l-8.2,3c0,0-14.3,2.3-21.4-0.9c0,0-3.7-2.6-2.5,2.1c0.1,0.5,0.4,0.9,0.7,1.2
			c-0.5,0.3-1.1,1.1-0.1,4.3c0,0.1,0.1,0.2,0.1,0.4c-0.3,1.9-0.1,4.2,2,5.5c0.5,1.6,1.6,3.2,4.3,4c3.7,1.1,12,2.2,17.3,2.9
			c4.6,0.7,8,1,9.8,0.7l1.9,0.3c0-0.5,5-7.7,5.6-10.8C1997.7,1061.8,1994.2,1059.2,1995,1056.2z"/>
		<path class="st9" d="M1994.8,1054.5c0,0,49.6-2.5,63.5-7.3c13.9-4.8,26.6-12.9,26.6-12.9v-14.2l47.1-0.7c0,0,5.9,43.1-7.4,48.1
			c-13.4,5-105.2,13.1-134.9,7.8L1994.8,1054.5z"/>
		<g>
			<path class="st19" d="M1956.2,1062.1c0.8,1,1.9,1.7,3.1,2.4c1.1,0.6,2.4,1.1,3.7,1.4s2.6,0.5,3.9,0.6c0.7,0,1.3,0,2,0
				c0.6,0,1.3-0.1,1.9-0.2c-1.3-0.1-2.6-0.1-3.9-0.3c-1.3-0.2-2.5-0.4-3.8-0.7c-1.2-0.3-2.4-0.8-3.6-1.3
				C1958.3,1063.5,1957.2,1062.9,1956.2,1062.1z"/>
			<path class="st19" d="M1958.3,1067.8c0.9,0.9,2.1,1.6,3.3,2.1s2.5,0.9,3.8,1.1s2.6,0.3,3.9,0.3c0.7,0,1.3-0.1,1.9-0.1
				c0.6-0.1,1.3-0.2,1.9-0.3c-1.3,0-2.6,0.1-3.9,0c-1.3-0.1-2.6-0.2-3.8-0.4c-1.3-0.2-2.5-0.6-3.7-1
				C1960.5,1069.1,1959.4,1068.6,1958.3,1067.8z"/>
			<path class="st19" d="M1956.2,1057.6c0.8,1,1.9,1.7,3.1,2.4c1.1,0.6,2.4,1.1,3.7,1.4s2.6,0.5,3.9,0.6c0.7,0,1.3,0,2,0
				c0.6,0,1.3-0.1,1.9-0.2c-1.3-0.1-2.6-0.1-3.9-0.3c-1.3-0.2-2.5-0.4-3.8-0.7c-1.2-0.3-2.4-0.8-3.6-1.3
				C1958.3,1059.1,1957.2,1058.5,1956.2,1057.6z"/>
		</g>
		<path class="st23" d="M2120.3,1019.5c-4.2,0-8.5,0-12.7-0.1l-12.7-0.2c-4-0.1-8.1-0.2-12.1-0.3c0.4-4.1,0.7-8.3,0.9-12.4
			c0.2-4.3,0.4-8.7,0.4-13c0-4.4,0-8.7-0.2-13s-0.4-8.7-0.7-13c0.1,4.3,0.2,8.7,0.2,13s0,8.7-0.1,13s-0.3,8.7-0.5,13
			s-0.6,8.7-1.1,13l-0.1,0.6h0.6c4.2,0.1,8.5,0.2,12.7,0.2s8.5,0.1,12.7,0c8.5-0.1,16.9-0.3,25.4-0.8
			C2128.8,1019.5,2124.6,1019.5,2120.3,1019.5z"/>
		<path class="st9" d="M1887.4,1017.7c-0.6-1.2-10.6,0.5-10.7-0.2c-0.1-0.7,9.8-5.7,9.6-6.9c-0.3-1.3-10.8,2.2-11.5,1.7
			s8.7-8.2,6.9-9.2c-1.3-0.7-7.7,3.6-10.7,5.8c-1,0.7-1.4,1.9-1.2,3l4.1,24c0.4,2.1,2.2,3.6,4.4,3.5h0.4l-0.6-13
			c3-0.1,8.6-0.4,8.2-1.6c-0.5-1-5.3-1.8-8.3-2.2v-0.2C1877.9,1022,1888,1018.7,1887.4,1017.7z"/>
		<g>
			<g>
				<path class="st27" d="M1748.5,1227.3h-66.1h-6.1h-122.1h-66c-23.6,0-42.7-19.1-42.7-42.6V1067c0-15.2-12.3-27.5-27.6-27.5l0,0
					c-15.2,0-27.6,12.3-27.6,27.5v120.7c0,52.9,42.9,95.7,95.8,95.7h68h56.4h65.7h6.1h67.2C1748.2,1265,1748,1245.8,1748.5,1227.3z"
					/>
				<path class="st27" d="M1811.4,1227.3c-0.2,14-0.1,35.1,0.2,56.1h132.5v-56.1H1811.4z"/>
			</g>
		</g>
		<path class="st10" d="M2026.3,1039.8l196,1.4c18.9,0,34.3,15.3,34.3,34.3v120.8c0,48.2-39.1,87.2-87.3,87.2h-203.1
			c0,0,40.3-70.3,40.3-72.3S2026.3,1039.8,2026.3,1039.8z"/>
		<g>
			<path class="st27" d="M2028.8,1039.5L2028.8,1039.5c-15.2,0-27.6,12.3-27.6,27.5v117.7c0,0.8,0,1.6-0.1,2.4l0,0l0,0
				c-1.3,22.4-19.8,40.2-42.6,40.2h-58.2c1.7,16.8,3.9,36.7,6,56.1h54.2c52.9,0,95.8-42.8,95.8-95.7V1067
				C2056.4,1051.8,2044,1039.5,2028.8,1039.5z"/>
		</g>
		<path class="st28" d="M1904,1261.6c-1-9.1-2.3-20.9-3.6-34.2l0,0c-2.5-26.2-5-43.4-2.3-41.6c9.5-3.4,68.1-0.6,103.1,1.4l0,0
			c0.2-5.8,0-95.2,0.1-99.8c-229.9,19.1-179.3,58.5-157.7,194.4l0,0c0.1,0.6,0.2,1.2,0.4,1.7l0,0c9.4,44.9,18.2,81.9,18.2,81.9
			s33.6,1.3,53.1-3.4C1915.2,1362.2,1909.1,1309.2,1904,1261.6z"/>
		<g>
			<path class="st29" d="M1516.5,1393.3l27.7-17.1l23.9,14.4l-8.4,5.9l-29,4.1c0,0-11.3-1.4-11.8-1.8
				C1518.4,1398.6,1516.5,1393.3,1516.5,1393.3z"/>
			<path class="st30" d="M1516.5,1393.3l-7,4.5c-3.3,2.1-1.8,7.1,2,7.1l53.1,0.3c1.9,0,3.4-1.5,3.4-3.4l0.1-11.1
				C1532.6,1401.8,1520.4,1398.3,1516.5,1393.3z"/>
			<path class="st9" d="M1546.7,1393.3l27.7-17.1l23.9,14.4l-8.4,5.9l-29,4.1c0,0-11.3-1.4-11.8-1.8
				C1548.6,1398.6,1546.7,1393.3,1546.7,1393.3z"/>
			<path class="st30" d="M1546.7,1393.3l-7,4.5c-3.3,2.1-1.8,7.1,2,7.1l53.1,0.3c1.9,0,3.4-1.5,3.4-3.4l0.1-11.1
				C1562.8,1401.8,1550.6,1398.3,1546.7,1393.3z"/>
			<path class="st21" d="M1695.2,905.5c14.3-10,6.7-14,15.1-22.7c6.5-6.8,8.6-11.8,8.4-16.8c0.2-5-1.8-10-8.3-16.9
				c-8.3-8.8-0.7-12.7-14.9-22.8s-29.3,14.4-29.3,14.4l-15.6,19.2l2.9,10l-6.1,19.4C1647.4,889.4,1680.9,915.6,1695.2,905.5z"/>
			<path class="st31" d="M1561.7,1096c0,0-59.2,22.2-62.5,39.6c-3.4,17.5,20.8,239.1,31.3,249.9c0,0,21.6,6,38.5-3.4
				c17-9.4,8.9-82.6,8.9-84.6s19-109.5,18.9-113.5s30.8-52.4,38.2-59.1s19.3-39.5,19.3-39.5L1561.7,1096z"/>
			<path class="st12" d="M1736,1079.4c0,0,4.6,58-11.6,78.6c-16.2,20.7-107.9,21.1-107.9,21.1l-18.2,211.5c0,0-24.4-1.5-40-4.5
				c0,0-12.9-233.2,3.8-248.8c16.6-15.6,92.3-51.9,92.3-51.9L1736,1079.4z"/>
			<path class="st21" d="M1640.5,802c0,0-24.6-9.4-39.2,11.3c-11.1,15.9-8.8,37.5,4.7,51.4l5.5,5.6c0,0,22.4-24.1,22.7-25.3
				C1634.5,843.9,1640.5,802,1640.5,802z"/>
			<path class="st9" d="M1623.8,921c0,0,34.7-6.4,50.6-5.8c15.9,0.5-9.7,42-9.7,42l-26,0.6c0,0-16-17.8-14.9-19.9
				c1-2.1,0-15.7,0-15.7L1623.8,921z"/>
			<g>
				<path class="st9" d="M1662.9,886.4l6.2,28.5c0,0-9.6,15.5-33.1,6c0,0,3.4-5.4,0.9-17.6C1634.3,890.9,1662.9,886.4,1662.9,886.4z
					"/>
				<path class="st17" d="M1662.9,886.4l2.9,13.3c-3.5,9.2-12.4,14.7-28.2,15.1c0.3-2.8,0.3-6.6-0.7-11.5
					C1634.3,890.9,1662.9,886.4,1662.9,886.4z"/>
				<g>
					<path class="st19" d="M1609.5,860.4c1.5,4.7-0.3,9.5-4.1,10.7s-8-1.6-9.5-6.3s0.3-9.5,4.1-10.7
						C1603.7,852.9,1608,855.8,1609.5,860.4z"/>
					<path class="st9" d="M1608.7,887.1c-1-2-1.8-4.2-2.4-6.4c-1.7-6-2.3-12.3-2.4-17.8c0-1.2-0.1-2.3-0.2-3.5
						c-0.5-4.7-0.1-9.6,1.4-14.6c4.8-16,19.8-27.2,36.5-27.1c22.5,0.1,39.7,19.2,38,41c2.5-1.1,5.2-1.2,7.4,0
						c4.4,2.4,5.5,8.7,2.5,14.1c-3,5.4-8.9,7.9-13.2,5.6c-0.6-0.3-1.1-0.7-1.6-1.2c-3.3,18.4-19.7,31.6-37.9,29.9
						c-8.9-0.8-16.7-5.1-22.4-11.4c-0.4-0.4-0.8-0.8-1.2-1.3C1611.4,892.1,1609.9,889.7,1608.7,887.1z"/>
					<path class="st19" d="M1633.1,854.7c0.5,2.1,0.7,4.3,0.5,6.5c-0.1,1.1-0.2,2.2-0.5,3.3s-0.7,2.2-1.5,3.3l-0.4,0.4l-0.3,0.3
						c-0.1,0.2-0.3,0.3-0.4,0.4c-0.3,0.3-0.4,0.6-0.5,1c-0.2,0.7,0,1.5,0.5,2.3c1,1.6,2.9,2.5,5,3.2c-2.1,0.2-4.6-0.3-6.3-2.2
						c-0.8-0.9-1.4-2.3-1.1-3.7c0.1-0.3,0.2-0.7,0.3-1s0.3-0.6,0.5-0.9c0.2-0.3,0.5-0.5,0.7-0.7c0.1-0.1,0.2-0.2,0.2-0.3l0.2-0.2
						c0.5-0.6,0.9-1.5,1.2-2.5c0.3-0.9,0.5-2,0.7-3C1632.5,859,1632.8,856.9,1633.1,854.7z"/>
					<path class="st20" d="M1645.2,859.4c-0.2,1.8,1.2,3.4,3,3.6c1.8,0.2,3.4-1.2,3.6-3c0.2-1.8-1.2-3.4-3-3.6
						C1647,856.2,1645.4,857.5,1645.2,859.4z"/>
					<path class="st20" d="M1616.6,858.5c-0.2,1.8,1.2,3.4,3,3.6c1.8,0.2,3.4-1.2,3.6-3c0.2-1.8-1.2-3.4-3-3.6
						C1618.4,855.4,1616.8,856.7,1616.6,858.5z"/>
					<path class="st32" d="M1643.2,884.5c0,0-4.6-2.2-9.3,0.3c0,0-4.5-3.5-8.6-1c0,0,1,7.3,9,7.7
						C1642.2,891.8,1643.2,884.5,1643.2,884.5z"/>
					<path class="st19" d="M1647.6,882.4c-1,0.6-2,1.2-3,1.7s-2.1,0.9-3.2,1.3c-2.2,0.7-4.4,1.1-6.7,1.1s-4.5-0.5-6.6-1.4
						s-4-2.2-5.8-3.7c0.8,0.9,1.6,1.7,2.5,2.4s1.9,1.3,3,1.9c1.1,0.5,2.2,0.9,3.3,1.2c1.2,0.3,2.3,0.4,3.5,0.5
						c2.4,0,4.7-0.4,6.9-1.3C1643.8,885.1,1645.9,884,1647.6,882.4z"/>
					<path class="st21" d="M1642.1,851.3c1.7-0.3,3.4-0.5,5-0.5s3.1,0.2,4.6,0.5c1.5,0.4,2.9,0.9,4.2,1.8c0.7,0.3,1.3,0.9,2,1.3
						c0.7,0.5,1.3,1,2.1,1.5c-0.3-0.8-0.7-1.6-1.2-2.4c-0.5-0.7-1-1.5-1.7-2.1c-1.3-1.3-3-2.2-4.8-2.7s-3.7-0.5-5.5,0
						C1645.1,849.3,1643.4,850.1,1642.1,851.3z"/>
					<path class="st21" d="M1627.4,850.9c-1.2-1.4-2.8-2.3-4.5-2.9c-1.7-0.6-3.6-0.8-5.5-0.4c-1.8,0.3-3.6,1.1-5,2.3
						c-0.8,0.5-1.3,1.3-1.9,1.9c-0.5,0.7-1,1.5-1.4,2.3c0.8-0.4,1.5-0.9,2.2-1.3c0.8-0.4,1.4-0.9,2.2-1.1c1.4-0.7,2.9-1.1,4.4-1.4
						c1.5-0.3,3-0.3,4.6-0.2C1624.1,850.2,1625.7,850.5,1627.4,850.9z"/>
				</g>
			</g>
			<path class="st9" d="M1584.4,988.5c0,0-3.2,78.6-12,90.9l48.6-11v-85.5L1584.4,988.5z"/>
			<path class="st33" d="M1605.2,999.3c0,0,6.8,19.8,8,30.3c3.1,26.1-0.3,44.5-5.7,59.3c-7.6,20.8,54.3,13.3,55.6,12.6
				c1.3-0.6,54.3-21.1,54.3-21.1l10.1-29.3v-51.7l-2.8-23.7L1605.2,999.3z"/>
			<path class="st9" d="M1753.4,975.6l-38.9,13.3c0,0,6.7,62.3,4.6,71.1c-1.8,7.6-30,22.6-47.9,31c-2.9,1.4-6.1,1.9-9.2,1.7
				c-10.2-0.8-28.3-2.4-31.1-2.6c-4.5-0.3-16.7,0-17.1,1.6c-0.4,1.4,9.6-0.1,16,1.2c0.9,0.2,0.4,1.4,0.2,1.4
				c-3.4,0.1-12.2,0.5-15.1,1.5c-3.6,1.2,9,0.2,15.8,1.5c0.5,0.1,0.9,1.4,0.5,1.8c-0.8,0.8-3.8,1.5-11.9,2.3
				c-13.5,1.4-0.3,3.1-0.3,3.1s1.2-0.3,12.8-1.9c0.4-0.1,0.9,1.1,0.3,1.7c-1.1,1-3.7,2.9-7.2,3.9c-4.4,1.3-1.2,2.4-1.2,2.4
				s8.2-2.5,12.9-2.8c3.5-0.3,19.7,1.1,26.4,1.4l0.5-1.1c9.1-0.3,81.3-2.1,88.3-46.9C1758.9,1014.9,1753.4,975.6,1753.4,975.6z"/>
			<g>
				<path class="st21" d="M1470.3,1020.2h124.1l35.2,85.8h59.8c1.7,0,3,1.4,3,3l0,0c0,1.7-1.4,3-3,3h-177.8L1470.3,1020.2z"/>
				<path class="st24" d="M1531.8,1069.2c0.7,3.7,3.9,6.1,7.1,5.5c3.2-0.6,5.2-4.1,4.5-7.8c-0.7-3.7-3.9-6.1-7.1-5.5
					C1533.1,1062,1531.1,1065.5,1531.8,1069.2z"/>
			</g>
			<path class="st33" d="M1623.8,921c0,0,23.6,27.5,50.6-5.8c0,0,29.6-2.4,51.3,13.1c21.8,15.5,34.8,50.2,34.8,50.2
				s-39.5,19.9-49.3,20.8h-109.6c0,0-16.7-1.3-32.8-9.5C1569,989.8,1571.7,934.6,1623.8,921z"/>
			<path class="st5" d="M1693.8,957.7c1.1,3.4,2.1,6.8,3.1,10.2s1.9,6.8,2.8,10.3c0.9,3.5,1.7,6.9,2.5,10.4c0.7,3.5,1.5,7,2,10.5
				l-0.8-0.8c1.1,0.1,2.4,0.1,3.6,0c1.2-0.1,2.5-0.3,3.7-0.4c2.5-0.4,5-0.9,7.4-1.6l1.8-0.5l1.8-0.6c1.2-0.4,2.4-0.7,3.6-1.2
				l3.6-1.2l3.6-1.4c2.4-0.9,4.7-1.9,7.1-2.9l7-3.2l6.9-3.3c2.3-1.2,4.6-2.3,6.9-3.5c-2.2,1.4-4.4,2.7-6.6,4
				c-2.2,1.3-4.5,2.6-6.7,3.8c-2.3,1.2-4.6,2.4-6.9,3.5l-3.5,1.6c-1.2,0.5-2.3,1.1-3.5,1.6c-4.7,2-9.6,3.8-14.6,5.2l-1.9,0.5
				l-1.9,0.4c-1.3,0.3-2.6,0.5-3.8,0.7c-1.3,0.2-2.6,0.4-3.9,0.4c-1.3,0.1-2.6,0.1-4.1,0l-0.7-0.1l-0.1-0.8c-1.1-7-2.5-13.9-4-20.9
				l-2-10.3L1693.8,957.7z"/>
			<path class="st5" d="M1610.5,949.8c-1.5,4-2.9,8.1-4.2,12.2c-1.2,4.1-2.3,8.2-3,12.4c-0.4,2.1-0.7,4.2-0.8,6.3
				c-0.2,2.1-0.2,4.2-0.2,6.3c0.2,4.2,6.4,24,8.2,28c-2.6-3.5-9.4-23.5-9.9-27.8c-0.5-4.4-0.2-8.8,0.6-13.1c0.4-2.1,0.9-4.3,1.5-6.4
				c0.6-2.1,1.3-4.2,2.1-6.2C1606.4,957.4,1608.2,953.4,1610.5,949.8z"/>
			<path class="st21" d="M1679.6,858.7c0,0-39.3-13.9-55.6-43.2c0,0,1.1-25.7,37.2-15.2C1686.1,807.6,1694.8,841.4,1679.6,858.7z"/>
		</g>
		<path class="st19" d="M2046.1,860.5c-2.9,0.5-5.8,0.8-8.7,1.2s-5.8,0.9-8.6,1.6c2.6-1.5,5.6-2.3,8.5-2.7
			C2040.1,860.2,2043.1,860.1,2046.1,860.5z"/>
		<g>
			<polygon class="st11" points="1469,1405.3 1457.3,1405.3 1486.5,1290.7 1497.5,1293.5 			"/>
		</g>
		<g>
			<g>
				<g>
					<polygon class="st11" points="2162,1405.2 2173.7,1405.2 2144.5,1290.6 2133.5,1293.4 					"/>
				</g>
			</g>
		</g>
		<g>
			<polygon class="st11" points="2037.7,1405.2 2026,1405.2 2055.2,1290.6 2066.2,1293.4 			"/>
		</g>
		<path class="st26" d="M1924.3,996.8l4.3,85.1c0.1,1.3-1,2.3-2.3,2.2l-4-0.3c-1.1-0.1-1.9-1-1.9-2l-2.5-85.5
			C1918,996.2,1921.2,994.6,1924.3,996.8z"/>
	</g>
	<g>
		<rect x="417.1" y="1141.6" class="st15" width="248.5" height="102.2"/>
		<path class="st14" d="M226.2,926.1c3.1,0.2,249,0,249,0v233.3H315.8l-85.3-85.3L226.2,926.1z"/>
		<path class="st10" d="M660.7,1057.2c0,0-170.5,10.2-170.5,0s0,44.4,0,44.4s83.4,14.9,92.8,14.9s53.1,23.1,58.9,25.1
			c5.8,1.9,18.2-49.7,18.9-50.2C661.3,1090.9,660.7,1057.2,660.7,1057.2z"/>
		<path class="st15" d="M239.2,1102.2h-26c-5.3,0-9.5-4.3-9.5-9.5v-157c0-5.3,4.3-9.5,9.5-9.5h26c5.3,0,9.5,4.3,9.5,9.5v157
			C248.8,1097.9,244.5,1102.2,239.2,1102.2z"/>
		<path class="st10" d="M411,1057.2H209.7c-18.1,0-32.8,14.7-32.8,32.8v115.6c0,46.1,37.4,83.4,83.5,83.4l207.3,1.3
			c0,0-14.4-3.8-16.8-8c-9.8-17.1-34.8-60.9-34.8-62.5C416.2,1217.9,411,1057.2,411,1057.2z"/>
		<path class="st27" d="M634.3,1083.5v112.6c0,22.5-18.3,40.8-40.8,40.8H478.2c-22.5,0-40.8-18.3-40.8-40.8v-112.6
			c0-14.6-11.8-26.4-26.4-26.4l0,0c-14.6,0-26.4,11.8-26.4,26.4v115.6c0,50.6,41,91.6,91.7,91.6h119c50.6,0,91.7-41,91.7-91.6
			v-115.5c0-14.6-11.8-26.4-26.4-26.4l0,0C646.1,1057.2,634.3,1069,634.3,1083.5z"/>
		<polygon class="st9" points="637.6,1344.3 641.8,1377.9 664.3,1379.7 664,1348.5 		"/>
		<g>
			<path class="st11" d="M698.7,1404.3l-61.7,0.4c-1.3,0-2.4-1.1-2.4-2.4v-1.8c0-1.3,1.1-2.4,2.5-2.4l61.7-0.4
				c1.3,0,2.4,1.1,2.4,2.4v1.8C701.1,1403.2,700,1404.3,698.7,1404.3z"/>
			<path class="st15" d="M637.8,1378.3l-2.4,18.2c-0.3,2.2,1,4.3,2.7,4.3l58.7-0.4c1.5,0,3-0.9,3.9-2.7c0.8-1.8,1-4.5-1.6-8.1
				c-5.2-7.2-22.4-8.9-30.8-15l-27.3,0.2C639.4,1374.8,638.1,1376.3,637.8,1378.3z"/>
			<g>
				<path class="st5" d="M664,1385.2L664,1385.2c-0.4-0.3-0.6-0.9-0.3-1.5c1.2-2.5,4.8-8.6,12.1-7.4c0.4,0.1,0.7,0.6,0.6,1.2l0,0
					c-0.1,0.5-0.5,0.9-0.9,0.8c-6.6-1-9.7,4.3-10.6,6.4C664.8,1385.2,664.3,1385.4,664,1385.2z"/>
			</g>
			<g>
				<path class="st5" d="M670.1,1387.5L670.1,1387.5c-0.4-0.3-0.6-0.9-0.3-1.5c1.2-2.5,4.8-8.6,12.1-7.4c0.4,0.1,0.7,0.6,0.6,1.2
					l0,0c-0.1,0.5-0.5,0.9-0.9,0.8c-6.6-1-9.7,4.3-10.6,6.4C670.8,1387.5,670.4,1387.7,670.1,1387.5z"/>
			</g>
			<g>
				<path class="st5" d="M675.7,1389.6L675.7,1389.6c-0.4-0.3-0.6-0.9-0.3-1.5c1.2-2.5,4.8-8.6,12.1-7.4c0.4,0.1,0.7,0.6,0.6,1.2
					l0,0c-0.1,0.5-0.5,0.9-0.9,0.8c-6.6-1-9.7,4.3-10.6,6.4C676.5,1389.6,676.1,1389.8,675.7,1389.6z"/>
			</g>
			<path class="st13" d="M653.8,1400.7c-4.5-14.7-12.4-16.2-16.8-15.9l-1.5,11.7c-0.3,2.2,1,4.3,2.7,4.3L653.8,1400.7z"/>
		</g>
		<polygon class="st9" points="594.6,1345 604.5,1377.5 627.5,1377.6 623.5,1353.9 		"/>
		<path class="st21" d="M390.9,852.5c0,0-6.9-34.6,13.2-46.8s40.7-10,54.5-1.8s21.2,35.3,14.3,50.5l-46.3-16.3L390.9,852.5z"/>
		<g>
			<path class="st11" d="M660.5,1404.9l-61.7,0.4c-1.3,0-2.4-1.1-2.4-2.4v-1.8c0-1.3,1.1-2.4,2.5-2.4l61.7-0.4
				c1.3,0,2.4,1.1,2.4,2.4v1.8C663,1403.8,661.9,1404.9,660.5,1404.9z"/>
			<path class="st10" d="M599.7,1378.9l-2.4,18.2c-0.3,2.2,1,4.3,2.7,4.3l58.7-0.4c1.5,0,3-0.9,3.9-2.7c0.8-1.8,1-4.5-1.6-8.1
				c-5.2-7.2-22.4-8.9-30.8-15l-27.3,0.2C601.3,1375.4,600,1376.9,599.7,1378.9z"/>
			<g>
				<path class="st5" d="M625.9,1385.8L625.9,1385.8c-0.4-0.3-0.6-0.9-0.3-1.5c1.2-2.5,4.8-8.6,12.1-7.4c0.4,0.1,0.7,0.6,0.6,1.2
					l0,0c-0.1,0.5-0.5,0.9-0.9,0.8c-6.6-1-9.7,4.3-10.6,6.4C626.6,1385.8,626.2,1386,625.9,1385.8z"/>
			</g>
			<g>
				<path class="st5" d="M631.9,1388.1L631.9,1388.1c-0.4-0.3-0.6-0.9-0.3-1.5c1.2-2.5,4.8-8.6,12.1-7.4c0.4,0.1,0.7,0.6,0.6,1.2
					l0,0c-0.1,0.5-0.5,0.9-0.9,0.8c-6.6-1.1-9.7,4.3-10.6,6.4C632.7,1388.1,632.3,1388.3,631.9,1388.1z"/>
			</g>
			<g>
				<path class="st5" d="M637.6,1390.2L637.6,1390.2c-0.4-0.3-0.6-0.9-0.3-1.5c1.2-2.5,4.8-8.6,12.1-7.4c0.4,0.1,0.7,0.6,0.6,1.2
					l0,0c-0.1,0.5-0.5,0.9-0.9,0.8c-6.6-1.1-9.7,4.3-10.6,6.4C638.4,1390.2,637.9,1390.4,637.6,1390.2z"/>
			</g>
			<path class="st13" d="M615.6,1401.3c-4.5-14.7-12.4-16.2-16.8-15.9l-1.5,11.7c-0.3,2.2,1,4.3,2.7,4.3L615.6,1401.3z"/>
		</g>
		<polygon class="st9" points="412.2,884 408.8,922.6 443.9,921 439.8,886.8 		"/>
		<path class="st19" d="M441.8,903l-1.9-16.3l-27.7-2.8l-1.2,13.4C416.5,902.7,426.4,908.2,441.8,903z"/>
		<path class="st19" d="M463.3,857.9c-2.1,4.2-1,9,2.5,10.7c3.5,1.6,8-0.5,10.1-4.7s1-9-2.5-10.7
			C469.9,851.6,465.4,853.7,463.3,857.9z"/>
		<path class="st9" d="M460.3,883.3c1.2-1.8,2.3-3.7,3.2-5.8c2.5-5.5,4-11.3,4.8-16.5c0.2-1.1,0.4-2.2,0.7-3.3
			c1.1-4.4,1.4-9.1,0.6-14c-2.4-15.8-15.5-28.4-31.8-30.6c-22-3-41.3,12.9-42.7,33.8c-2.3-1.4-4.9-1.9-7.2-1
			c-4.6,1.7-6.5,7.5-4.4,13s7.6,8.7,12.1,7c0.6-0.2,1.2-0.5,1.7-0.9c0.7,17.9,14.8,32.6,32.8,33.4c8.8,0.4,17-2.6,23.4-7.8
			c0.4-0.3,0.9-0.7,1.3-1.1C457,887.7,458.8,885.6,460.3,883.3z"/>
		<path class="st20" d="M428.6,852.1c-0.1,1.8-1.6,3.1-3.4,3s-3.2-1.6-3.1-3.3c0.1-1.8,1.6-3.1,3.4-3
			C427.3,848.9,428.7,850.4,428.6,852.1z"/>
		<path class="st20" d="M456.6,855.2c-0.1,1.8-1.6,3.1-3.4,3s-3.2-1.6-3.1-3.3c0.1-1.8,1.6-3.1,3.4-3
			C455.3,851.9,456.7,853.4,456.6,855.2z"/>
		<path class="st21" d="M432.7,844.9c-1.7-0.5-3.2-0.9-4.8-1.1c-1.5-0.2-3.1-0.3-4.5-0.1c-1.5,0.2-2.9,0.5-4.4,1.1
			c-0.8,0.2-1.4,0.7-2.2,1c-0.7,0.4-1.4,0.8-2.2,1.2c0.4-0.7,0.9-1.5,1.5-2.1s1.2-1.3,2-1.7c1.4-1.1,3.2-1.7,5.1-1.9
			c1.8-0.2,3.7,0,5.4,0.7C430.1,842.6,431.6,843.6,432.7,844.9z"/>
		<path class="st11" d="M634.7,1299.9H248.8c-1.4,0-2.5-1.1-2.5-2.5v-6.7c0-1.4,1.1-2.5,2.5-2.5h385.9c1.4,0,2.5,1.1,2.5,2.5v6.7
			C637.2,1298.8,636,1299.9,634.7,1299.9z"/>
		<path class="st21" d="M447.1,846.5c1.3-1.1,3-1.8,4.8-2.1s3.7-0.2,5.4,0.3c1.7,0.6,3.4,1.5,4.6,2.8c0.7,0.6,1.1,1.4,1.6,2.1
			c0.4,0.8,0.7,1.6,1,2.4c-0.7-0.5-1.3-1.1-2-1.6c-0.7-0.4-1.2-1-1.9-1.4c-1.3-0.9-2.7-1.5-4.1-1.9c-1.4-0.5-2.9-0.7-4.5-0.8
			C450.5,846.3,448.9,846.3,447.1,846.5z"/>
		<path class="st21" d="M395.7,847.4c-2.1-1.9-3.7-1.8-3.7-1.8l1.4-11.1l3.8-6.6c0,0,14.6-17.5,15.1-17.9s11.3-5.8,12-6.1
			s15.4,2.5,15.4,2.5s26.3-4.2,21.4,8.9c-4.9,13.1-24.3,19.4-25.3,18.7c3.2-2.9,3.9-11.3,3.9-11.3
			C425.7,836.5,399.8,846,395.7,847.4z"/>
		<path class="st19" d="M440.2,851.9c1,1.5,1.8,3.1,2.5,4.7c0.7,1.6,1.4,3.3,1.9,5c0.2,0.9,0.4,1.7,0.5,2.7c0,0.2,0,0.5,0,0.7
			c0,0.1-0.1,0.3-0.1,0.4c-0.1,0.1-0.1,0.3-0.2,0.4c-0.1,0.1-0.1,0.1-0.2,0.2l-0.1,0.1c-0.1,0.1-0.2,0.2-0.3,0.2
			c-0.2,0.1-0.4,0.3-0.6,0.4c-0.8,0.5-1.7,0.8-2.5,1.1c-0.9,0.3-1.7,0.5-2.6,0.7c1.6-0.8,3.3-1.5,4.7-2.5c0.2-0.1,0.3-0.3,0.5-0.4
			l0.2-0.2l0.1-0.1c0,0,0,0,0-0.1c0.1-0.2,0.1-0.6,0.1-1c-0.1-0.8-0.3-1.6-0.5-2.5c-0.5-1.7-1.1-3.3-1.6-4.9
			C441.3,855.2,440.7,853.5,440.2,851.9z"/>
		<path class="st34" d="M447.6,913.1c0,0,27.5,1.2,41.8,18.6c14.4,17.5,55.1,188.9,55.1,188.9l-45.8-4.9c0,0-59.6-81.4-59.6-83.5
			S447.6,913.1,447.6,913.1z"/>
		<path class="st9" d="M393.6,913.4c0,0,52.6-0.1,53.4-0.1c0.8,0.1,4.8-0.4,6.3,1.2c1.5,1.6,4,10.1-3.3,14.3s8.2,4.4-11.6,7.9
			c-19.8,3.5-13.9,8.2-28.9,2.1c-15-6.1-17-3.5-17.5-8.9C391.5,924.4,393.6,913.4,393.6,913.4z"/>
		<path class="st21" d="M498.1,991.2c-3.1-27.5-10.4-46-18.7-58.3c-6.2-9.2-15.6-15.7-26.1-18.4c0,0.2-2.7,10-16.2,11.5
			c-13.6,1.6-43-12.7-43.6-12.6l0,0c-15.2,0.9-28.3,3.8-35.2,11.8c-13.6,15.9-58.8,127-57.7,142.7c1,15.7,13.1,15.7,13.1,15.7
			l123.6,0.1v28.4l89.7,6.1C524.6,1116.4,506.8,1069.2,498.1,991.2z"/>
		<g>
			<path class="st24" d="M508,980.4c0.8,0,32.6-19.3,32.6-19.3l6,1.3l-2.1,1.6l3.6-0.9l5.8,0.9c0,0-19.1,22.6-19.5,23.2
				c-0.3,0.6-8.7,3.9-9.3,4.2C524.4,991.7,508,980.4,508,980.4z"/>
			<path class="st24" d="M457.1,965l2.9-1.8l1.3,0.9v-1.7l1.8-1.3l46.3,18.3c0,0-14.8,9.4-15.3,9s-26.9-5.2-27.4-5.9
				C466.2,981.9,457.1,965,457.1,965z"/>
			<path class="st22" d="M457.8,964.2l52.5,17l42.3-18.4c2.6-1.1,5.4,1,5.1,3.7l-8.1,72.1c-0.1,1.2-0.9,2.3-1.9,2.8l-40.7,21.4
				l-36.8-13.6l-0.9-1.4l-4.8-0.7l-15.4-5.7c-1.4-0.5-2.2-1.9-2.1-3.3l6.1-70.7C453.3,965,455.6,963.4,457.8,964.2z"/>
			<path class="st35" d="M457.8,964.2c-2.2-0.7-4.6,0.8-4.8,3.2l-6.1,70.6c-0.1,1.5,0.8,2.9,2.2,3.5l15.4,5.7l4.8,0.7l0.9,1.4
				l24.8,9.2c5.7-1.1,11.4-2.2,11.4-2.2l3.9-75L457.8,964.2z"/>
			<polygon class="st35" points="518.1,989.8 550.9,975.5 549.8,990.3 517.8,1005.2 			"/>
		</g>
		<path class="st16" d="M535.8,1112.2c0,0,110.9-3.5,136,20.3c25.2,23.8,0.7,199.3-3.5,215.7c0,0-15.4,14.3-33.6,8.7
			c-18.2-5.6-11.2-83.9-11.2-83.9s2.1-74.8-0.7-85.3c-2.8-10.5-41.3-18.2-41.3-18.2s-59.5-41.2-56-41.2
			C529.1,1128.2,535.8,1112.2,535.8,1112.2z"/>
		<path class="st28" d="M437.4,1108.8c0,0,148.4-17.6,168.7,49.5c20.3,67.1,35.7,199.9,35.7,199.9s-19.6,11.9-46.2,0
			c0,0-37.6-142.6-51.7-156.6s-106.5-5.5-106.5-5.5V1108.8z"/>
		<path class="st5" d="M475.6,1066.1c-0.6-3.2-1.4-6.4-2.3-9.5s-1.9-6.2-3.2-9.2l-0.1-0.3h-0.4l-99-5c0.4-3,1.3-5.9,2.3-8.8
			c1.1-3,2.3-5.9,3.5-8.9c2.5-5.8,5.3-11.6,8.2-17.3c5.8-11.4,11.9-22.5,18.3-33.6l-0.1-0.1c-6.5,11-12.7,22.1-18.5,33.5
			c-2.9,5.7-5.7,11.4-8.3,17.2c-1.3,2.9-2.5,5.9-3.6,8.9s-2,6.1-2.4,9.3v0.3h0.3l99,5.5c1.1,2.9,2.1,5.8,3,8.8
			c0.9,3.1,1.7,6.2,2.2,9.4c0.5,3.2,1,6.3,1,9.5c0,3-0.2,6.1-1,9l-29.3-0.9l-14.9-0.4l-14.9-0.3v0.1l14.9,0.6l14.9,0.6l29.7,1.2h0.4
			l0.1-0.4c1-3.2,1.3-6.5,1.3-9.7C476.6,1072.6,476.1,1069.3,475.6,1066.1z"/>
		<path class="st36" d="M506.9,980.1l-3.8,79.1l5.8-0.8l4.1-78.2C513,980.1,509.9,978,506.9,980.1z"/>
		<g>
			<path class="st9" d="M511.1,1054.9c-7.3,3.2-22.3,0.9-22.3,0.9l-11.3-3.9c-1.6,1.1-3.2,2.2-4.8,3.2c0.2,0.5,0.3,1,0.5,1.5
				c0.9,3.1,1.7,6.3,2.3,9.5c0.6,3.2,1,6.4,1,9.7c0,0.5,0,1.1,0,1.6l1.6-0.6c1.9,0.4,5.4,0.1,10.2-0.7c5.5-0.7,14.2-1.9,18-3
				c2.7-0.8,3.9-2.5,4.4-4.2c2.2-1.3,2.4-3.8,2.1-5.7c0.1-0.1,0.1-0.3,0.2-0.4c1.1-3.3,0.5-4.2-0.1-4.5c0.4-0.4,0.7-0.8,0.8-1.3
				C515,1052.2,511.1,1054.9,511.1,1054.9z"/>
			<path class="st19" d="M513,1063c-0.9,1-2,1.8-3.2,2.5s-2.5,1.1-3.8,1.5c-1.3,0.3-2.7,0.6-4,0.6c-0.7,0-1.4,0-2,0
				c-0.7-0.1-1.4-0.1-2-0.2c1.4-0.1,2.7-0.1,4-0.3c1.3-0.2,2.6-0.4,3.9-0.7c1.3-0.3,2.5-0.8,3.7-1.3
				C510.8,1064.5,511.9,1063.9,513,1063z"/>
			<path class="st19" d="M510.8,1069c-1,1-2.2,1.6-3.4,2.2c-1.2,0.6-2.6,0.9-3.9,1.2c-1.3,0.2-2.7,0.3-4.1,0.3c-0.7,0-1.4-0.1-2-0.1
				c-0.7-0.1-1.3-0.2-2-0.4c1.4,0,2.7,0.1,4,0s2.7-0.2,4-0.4c1.3-0.2,2.6-0.6,3.8-1C508.5,1070.3,509.7,1069.8,510.8,1069z"/>
			<path class="st19" d="M513,1058.4c-0.9,1-2,1.8-3.2,2.5s-2.5,1.1-3.8,1.5c-1.3,0.3-2.7,0.6-4,0.6c-0.7,0-1.4,0-2,0
				c-0.7-0.1-1.4-0.1-2-0.2c1.4-0.1,2.7-0.1,4-0.3c1.3-0.2,2.6-0.4,3.9-0.7c1.3-0.3,2.5-0.8,3.7-1.3
				C510.8,1059.9,511.9,1059.2,513,1058.4z"/>
		</g>
		<path class="st19" d="M426.9,874.9c3.1,0.4,6.1,0.9,9.1,1.3c3,0.4,6,0.8,9.1,0.9c-3,0.8-6.2,0.7-9.3,0.2
			C432.8,876.9,429.7,876.2,426.9,874.9z"/>
		<g>
			<polygon class="st11" points="254.3,1405.1 243.1,1405.1 271,1295.4 281.5,1298.1 			"/>
		</g>
		<g>
			<g>
				<g>
					<polygon class="st11" points="459.7,1405.1 448.5,1405.1 476.4,1295.4 486.9,1298.1 					"/>
				</g>
			</g>
		</g>
		<g>
			<polygon class="st11" points="390.7,1405.1 401.9,1405.1 374,1295.4 363.5,1298.1 			"/>
		</g>
	</g>
	<rect x="1672.2" y="527.9" class="st1" width="344.2" height="19.7"/>
	<rect x="1722.8" y="695.6" class="st1" width="344.2" height="19.7"/>
	<g>
		<g>
			<g>
				<rect x="808.4" y="514.9" class="st12" width="9.8" height="796.8"/>
			</g>
			<g>
				<rect x="912.9" y="514.9" class="st12" width="9.8" height="796.8"/>
			</g>
			<g>
				<rect x="813.2" y="527" class="st12" width="104.5" height="8.3"/>
			</g>
			<g>
				<rect x="813.2" y="580.5" class="st12" width="104.5" height="8.3"/>
			</g>
			<g>
				<rect x="813.2" y="634" class="st12" width="104.5" height="8.3"/>
			</g>
			<g>
				<rect x="813.2" y="687.5" class="st12" width="104.5" height="8.3"/>
			</g>
			<g>
				<rect x="813.2" y="740.9" class="st12" width="104.5" height="8.3"/>
			</g>
			<g>
				<rect x="813.2" y="794.4" class="st12" width="104.5" height="8.3"/>
			</g>
			<g>
				<rect x="813.2" y="847.9" class="st12" width="104.5" height="8.3"/>
			</g>
			<g>
				<rect x="813.2" y="901.4" class="st12" width="104.5" height="8.3"/>
			</g>
			<g>
				<rect x="813.2" y="954.9" class="st12" width="104.5" height="8.3"/>
			</g>
			<g>
				<rect x="813.2" y="1008.3" class="st12" width="104.5" height="8.3"/>
			</g>
			<g>
				<rect x="813.2" y="1061.8" class="st12" width="104.5" height="8.3"/>
			</g>
			<g>
				<rect x="813.2" y="1115.3" class="st12" width="104.5" height="8.3"/>
			</g>
			<g>
				<rect x="813.2" y="1168.8" class="st12" width="104.5" height="8.3"/>
			</g>
		</g>
	</g>
	<g>
		<ellipse class="st1" cx="2133.5" cy="413.1" rx="94.5" ry="94.4"/>
		<path class="st5" d="M2216.6,407.9c2.9,45.8-32,85.3-77.9,88.2s-85.4-32-88.3-77.8c-2.9-45.8,32-85.3,77.9-88.2
			C2174.2,327.3,2213.7,362.1,2216.6,407.9z"/>
		<g>
			<rect x="2051.7" y="411.6" class="st8" width="28" height="2.2"/>
			<rect x="2187.4" y="411.6" class="st8" width="28" height="2.2"/>
			<rect x="2132.3" y="332" class="st8" width="2.2" height="28"/>
			<rect x="2132.3" y="467" class="st8" width="2.2" height="28"/>
			<path class="st8" d="M2135.8,413.1c0,1.3-1,2.3-2.3,2.3s-2.3-1-2.3-2.3s1-2.3,2.3-2.3S2135.8,411.9,2135.8,413.1z"/>
			<g>
				<path class="st8" d="M2133.5,414.2c-0.3,0-0.5-0.1-0.7-0.3l-41.7-41.6c-0.4-0.4-0.4-1.1,0-1.5s1.1-0.4,1.5,0l41.7,41.6
					c0.4,0.4,0.4,1.1,0,1.5C2134,414.1,2133.8,414.2,2133.5,414.2z"/>
			</g>
			<g>
				<g>
					<path class="st8" d="M2146.9,455.2c-0.2-0.1-0.3-0.2-0.4-0.4l-13.5-40.7c-0.1-0.4,0.1-0.8,0.5-1c0.4-0.1,0.8,0.1,1,0.5
						l13.5,40.7c0.1,0.4-0.1,0.8-0.5,1C2147.3,455.3,2147.1,455.3,2146.9,455.2z"/>
				</g>
			</g>
		</g>
	</g>
</g>
</svg>
